<?xml version="1.0" encoding="utf-8" standalone="no"?>
<!DOCTYPE svg PUBLIC "-//W3C//DTD SVG 1.1//EN"
  "http://www.w3.org/Graphics/SVG/1.1/DTD/svg11.dtd">
<!-- Created with matplotlib (https://matplotlib.org/) -->
<svg height="355.987578pt" version="1.1" viewBox="0 0 576 355.987578" width="576pt" xmlns="http://www.w3.org/2000/svg" xmlns:xlink="http://www.w3.org/1999/xlink">
 <metadata>
  <rdf:RDF xmlns:cc="http://creativecommons.org/ns#" xmlns:dc="http://purl.org/dc/elements/1.1/" xmlns:rdf="http://www.w3.org/1999/02/22-rdf-syntax-ns#">
   <cc:Work>
    <dc:type rdf:resource="http://purl.org/dc/dcmitype/StillImage"/>
    <dc:date>2021-02-18T22:26:24.264590</dc:date>
    <dc:format>image/svg+xml</dc:format>
    <dc:creator>
     <cc:Agent>
      <dc:title>Matplotlib v3.3.3, https://matplotlib.org/</dc:title>
     </cc:Agent>
    </dc:creator>
   </cc:Work>
  </rdf:RDF>
 </metadata>
 <defs>
  <style type="text/css">*{stroke-linecap:butt;stroke-linejoin:round;}</style>
 </defs>
 <g id="figure_1">
  <g id="patch_1">
   <path d="M 0 355.987578 
L 576 355.987578 
L 576 0 
L 0 0 
z
" style="fill:#ffffff;"/>
  </g>
  <g id="axes_1">
   <g id="patch_2">
    <path d="M 72 316.828944 
L 518.4 316.828944 
L 518.4 42.718509 
L 72 42.718509 
z
" style="fill:#ffffff;"/>
   </g>
   <g id="matplotlib.axis_1">
    <g id="xtick_1">
     <g id="line2d_1">
      <defs>
       <path d="M 0 0 
L 0 -8 
" id="m1403aa92d1" style="stroke:#222222;"/>
      </defs>
      <g>
       <use style="fill:#222222;stroke:#222222;" x="92.290909" xlink:href="#m1403aa92d1" y="316.828944"/>
      </g>
     </g>
     <g id="line2d_2">
      <defs>
       <path d="M 0 0 
L 0 8 
" id="mc202ce1796" style="stroke:#222222;"/>
      </defs>
      <g>
       <use style="fill:#222222;stroke:#222222;" x="92.290909" xlink:href="#mc202ce1796" y="42.718509"/>
      </g>
     </g>
     <g id="text_1">
      <!-- 0 -->
      <g style="fill:#222222;" transform="translate(87.925909 332.532381)scale(0.18 -0.18)">
       <defs>
        <path d="M 24.90625 59 
C 32.09375 59 37 47 37 31.703125 
C 37 16.40625 32.59375 3.296875 23.90625 3.296875 
C 16.703125 3.296875 11.59375 15.90625 11.59375 31.203125 
C 11.59375 46.5 16.703125 59 24.90625 59 
z
M 24.296875 62.59375 
C 10.796875 62.59375 3 48.203125 3 31.203125 
C 3 14.203125 11 -0.296875 24.296875 -0.296875 
C 37.796875 -0.296875 45.59375 14.203125 45.59375 31.203125 
C 45.59375 48.203125 38 62.59375 24.296875 62.59375 
z
" id="Cochineal-Roman-48"/>
       </defs>
       <use xlink:href="#Cochineal-Roman-48"/>
      </g>
     </g>
    </g>
    <g id="xtick_2">
     <g id="line2d_3">
      <g>
       <use style="fill:#222222;stroke:#222222;" x="173.454545" xlink:href="#m1403aa92d1" y="316.828944"/>
      </g>
     </g>
     <g id="line2d_4">
      <g>
       <use style="fill:#222222;stroke:#222222;" x="173.454545" xlink:href="#mc202ce1796" y="42.718509"/>
      </g>
     </g>
     <g id="text_2">
      <!-- 1 -->
      <g style="fill:#222222;" transform="translate(169.089545 332.532381)scale(0.18 -0.18)">
       <defs>
        <path d="M 21.796875 11.296875 
C 21.796875 8.40625 21.703125 5.703125 21.203125 4.09375 
C 20.90625 3 16.203125 2.5 15 2.5 
C 14.59375 2 14.5 0.203125 15 -0.296875 
C 19 -0.09375 21.59375 0.203125 25.40625 0.203125 
C 29.203125 0.203125 32.296875 -0.09375 36.296875 -0.296875 
C 36.796875 0.203125 36.703125 2 36.296875 2.5 
C 35.09375 2.5 30.296875 3 30 4.09375 
C 29.5 5.703125 29.5 8.40625 29.5 11.296875 
L 29.5 51.703125 
C 29.5 57.703125 30.296875 61.09375 30.296875 61.09375 
C 30.203125 61.59375 29.90625 62.703125 29.296875 62.703125 
L 29.09375 62.703125 
C 28.796875 62.703125 20.09375 58.40625 12.09375 54.796875 
C 11.796875 54.703125 12 54.40625 12 54.203125 
C 12 53.5 12.40625 52.90625 12.90625 52.5 
C 14.5 53.09375 18.296875 54.5 19.796875 54.5 
C 21.203125 54.5 21.796875 53.59375 21.796875 50.796875 
z
" id="Cochineal-Roman-49"/>
       </defs>
       <use xlink:href="#Cochineal-Roman-49"/>
      </g>
     </g>
    </g>
    <g id="xtick_3">
     <g id="line2d_5">
      <g>
       <use style="fill:#222222;stroke:#222222;" x="254.618182" xlink:href="#m1403aa92d1" y="316.828944"/>
      </g>
     </g>
     <g id="line2d_6">
      <g>
       <use style="fill:#222222;stroke:#222222;" x="254.618182" xlink:href="#mc202ce1796" y="42.718509"/>
      </g>
     </g>
     <g id="text_3">
      <!-- 2 -->
      <g style="fill:#222222;" transform="translate(250.253182 332.532381)scale(0.18 -0.18)">
       <defs>
        <path d="M 44.296875 14.59375 
C 43.90625 14.90625 42.703125 15.203125 42.296875 15.203125 
C 41.703125 15.203125 41.40625 15.09375 41.203125 14.59375 
C 39.09375 9.5 36.90625 7.09375 33 7.09375 
L 13.59375 7.09375 
C 18 12 28 23.09375 34.90625 31.59375 
C 38.296875 35.796875 40.5 40.796875 40.5 46.40625 
C 40.5 54.703125 33 62.703125 23.59375 62.703125 
C 13.296875 62.703125 6.296875 51.90625 5.59375 49.5 
C 5.59375 49.09375 6.703125 47.90625 7.5 47.90625 
C 8.703125 49.90625 13.59375 56.296875 21.40625 56.296875 
C 27.59375 56.296875 32.203125 51.203125 32.203125 44.5 
C 32.203125 39.703125 31.5 35.796875 27.5 29.90625 
C 21.796875 21.59375 12.40625 10.5 4.203125 1.40625 
C 4.203125 1 4.796875 0.203125 5.203125 0 
L 39 0 
C 39.59375 1.796875 42.296875 9.796875 44.296875 14.59375 
z
" id="Cochineal-Roman-50"/>
       </defs>
       <use xlink:href="#Cochineal-Roman-50"/>
      </g>
     </g>
    </g>
    <g id="xtick_4">
     <g id="line2d_7">
      <g>
       <use style="fill:#222222;stroke:#222222;" x="335.781818" xlink:href="#m1403aa92d1" y="316.828944"/>
      </g>
     </g>
     <g id="line2d_8">
      <g>
       <use style="fill:#222222;stroke:#222222;" x="335.781818" xlink:href="#mc202ce1796" y="42.718509"/>
      </g>
     </g>
     <g id="text_4">
      <!-- 3 -->
      <g style="fill:#222222;" transform="translate(331.416818 332.532381)scale(0.18 -0.18)">
       <defs>
        <path d="M 25.203125 62.703125 
C 17.59375 62.703125 12 57.703125 9 53.203125 
C 9 52.296875 9.59375 51.09375 10.203125 51.09375 
C 11.09375 51.796875 14.90625 57.5 21.09375 57.5 
C 26.703125 57.5 30.703125 53.59375 30.703125 48.40625 
C 30.703125 40 23.296875 35.796875 15.5 34 
C 15.296875 33.703125 15.296875 33.40625 15.296875 33 
C 15.296875 32.203125 15.5 31.59375 15.90625 31.09375 
C 17.09375 31.40625 19.59375 32.296875 21.703125 32.296875 
C 28.09375 32.296875 34.203125 26.5 34.203125 18.59375 
C 34.203125 7.40625 27.90625 3.40625 22.703125 3.40625 
C 20.09375 3.40625 17.40625 4 15.5 5.90625 
C 13.90625 7.5 12.703125 10.203125 10 10.203125 
C 7.90625 10.203125 5.90625 8.296875 5.90625 5.5 
C 5.90625 3.90625 7.296875 2.203125 7.90625 1.796875 
C 11 0.203125 15.203125 -0.5 17.796875 -0.5 
C 30 -0.5 42.59375 7.90625 42.59375 21.296875 
C 42.59375 30.90625 34.59375 36.203125 29 37 
C 32.40625 39.09375 38 43.90625 38 50.203125 
C 38 58.203125 30.203125 62.703125 25.203125 62.703125 
z
" id="Cochineal-Roman-51"/>
       </defs>
       <use xlink:href="#Cochineal-Roman-51"/>
      </g>
     </g>
    </g>
    <g id="xtick_5">
     <g id="line2d_9">
      <g>
       <use style="fill:#222222;stroke:#222222;" x="416.945455" xlink:href="#m1403aa92d1" y="316.828944"/>
      </g>
     </g>
     <g id="line2d_10">
      <g>
       <use style="fill:#222222;stroke:#222222;" x="416.945455" xlink:href="#mc202ce1796" y="42.718509"/>
      </g>
     </g>
     <g id="text_5">
      <!-- 4 -->
      <g style="fill:#222222;" transform="translate(412.580455 332.532381)scale(0.18 -0.18)">
       <defs>
        <path d="M 37.40625 62.90625 
C 36.59375 62.90625 35 61.203125 34.40625 60.40625 
L 2.59375 18.796875 
C 2.59375 18.203125 2.90625 17.40625 3.59375 17 
L 31.09375 17 
L 31.09375 0.203125 
C 31.09375 -0.5 32.296875 -0.59375 34.59375 -0.59375 
C 38.40625 -0.59375 38.796875 -0.09375 38.796875 -0.09375 
L 38.796875 17 
L 45.59375 17 
C 45.796875 17.296875 45.90625 17.703125 45.90625 18.59375 
C 45.90625 20.703125 45.203125 22.59375 44.59375 22.59375 
L 38.796875 22.59375 
L 38.796875 61.09375 
C 38.796875 61.90625 38.40625 62.90625 37.40625 62.90625 
z
M 31.09375 51.203125 
L 31.09375 22.59375 
L 9.203125 22.59375 
z
" id="Cochineal-Roman-52"/>
       </defs>
       <use xlink:href="#Cochineal-Roman-52"/>
      </g>
     </g>
    </g>
    <g id="xtick_6">
     <g id="line2d_11">
      <g>
       <use style="fill:#222222;stroke:#222222;" x="498.109091" xlink:href="#m1403aa92d1" y="316.828944"/>
      </g>
     </g>
     <g id="line2d_12">
      <g>
       <use style="fill:#222222;stroke:#222222;" x="498.109091" xlink:href="#mc202ce1796" y="42.718509"/>
      </g>
     </g>
     <g id="text_6">
      <!-- 5 -->
      <g style="fill:#222222;" transform="translate(493.744091 332.532381)scale(0.18 -0.18)">
       <defs>
        <path d="M 24.296875 38.59375 
C 21.703125 38.59375 16.59375 37.796875 13.90625 36.703125 
C 15.09375 42.203125 16.203125 48.40625 17.40625 54.296875 
L 25.59375 54.296875 
C 30.703125 54.296875 34.296875 54.59375 37 54.90625 
C 38.796875 57 39.90625 61.203125 39.90625 61.796875 
C 39.90625 62.296875 39.296875 62.5 38.703125 62.90625 
C 38.703125 62.90625 33.703125 62 29.703125 62 
L 15.296875 62 
C 14.203125 56 11.703125 43.90625 9.59375 33 
C 9.59375 32.296875 10 31.59375 10.40625 31.59375 
C 12 32.40625 16.5 33.09375 18.59375 33.09375 
C 29.90625 33.09375 34.203125 24.703125 34.203125 18.59375 
C 34.203125 7.296875 27.90625 3.40625 22.703125 3.40625 
C 20.09375 3.40625 17.40625 4 15.5 5.90625 
C 13.90625 7.5 12.703125 10.203125 10 10.203125 
C 7.90625 10.203125 5.90625 8.296875 5.90625 5.5 
C 5.90625 3.90625 7.296875 2.203125 7.90625 1.796875 
C 11 0.203125 15.203125 -0.5 17.796875 -0.5 
C 30 -0.5 42.59375 7.90625 42.59375 21.296875 
C 42.59375 29.59375 35.796875 38.59375 24.296875 38.59375 
z
" id="Cochineal-Roman-53"/>
       </defs>
       <use xlink:href="#Cochineal-Roman-53"/>
      </g>
     </g>
    </g>
   </g>
   <g id="matplotlib.axis_2">
    <g id="ytick_1">
     <g id="line2d_13">
      <defs>
       <path d="M 0 0 
L 8 0 
" id="m89f8daafcf" style="stroke:#222222;"/>
      </defs>
      <g>
       <use style="fill:#222222;stroke:#222222;" x="72" xlink:href="#m89f8daafcf" y="301.614657"/>
      </g>
     </g>
     <g id="line2d_14">
      <defs>
       <path d="M 0 0 
L -8 0 
" id="me12709719e" style="stroke:#222222;"/>
      </defs>
      <g>
       <use style="fill:#222222;stroke:#222222;" x="518.4" xlink:href="#me12709719e" y="301.614657"/>
      </g>
     </g>
     <g id="text_7">
      <!-- −0.10 -->
      <g style="fill:#222222;" transform="translate(27.946562 307.716376)scale(0.18 -0.18)">
       <defs>
        <path d="M 51.40625 21.296875 
C 52.796875 22 54 26.796875 52.59375 26.796875 
L 8.796875 26.796875 
C 7.40625 26.296875 6 21.296875 7.203125 21.296875 
z
" id="Cochineal-Roman-8722"/>
        <path d="M 4.703125 4.40625 
C 4.703125 1.5 7.296875 -1.09375 10.203125 -1.09375 
C 13.09375 -1.09375 15.40625 1.5 15.40625 4.40625 
C 15.40625 7.296875 13.09375 9.703125 10.203125 9.703125 
C 7.296875 9.703125 4.703125 7.296875 4.703125 4.40625 
z
" id="Cochineal-Roman-46"/>
       </defs>
       <use xlink:href="#Cochineal-Roman-8722"/>
       <use x="59.599991" xlink:href="#Cochineal-Roman-48"/>
       <use x="108.099976" xlink:href="#Cochineal-Roman-46"/>
       <use x="128.299973" xlink:href="#Cochineal-Roman-49"/>
       <use x="176.799957" xlink:href="#Cochineal-Roman-48"/>
      </g>
     </g>
    </g>
    <g id="ytick_2">
     <g id="line2d_15">
      <g>
       <use style="fill:#222222;stroke:#222222;" x="72" xlink:href="#m89f8daafcf" y="249.162146"/>
      </g>
     </g>
     <g id="line2d_16">
      <g>
       <use style="fill:#222222;stroke:#222222;" x="518.4" xlink:href="#me12709719e" y="249.162146"/>
      </g>
     </g>
     <g id="text_8">
      <!-- −0.05 -->
      <g style="fill:#222222;" transform="translate(27.946562 255.263865)scale(0.18 -0.18)">
       <use xlink:href="#Cochineal-Roman-8722"/>
       <use x="59.599991" xlink:href="#Cochineal-Roman-48"/>
       <use x="108.099976" xlink:href="#Cochineal-Roman-46"/>
       <use x="128.299973" xlink:href="#Cochineal-Roman-48"/>
       <use x="176.799957" xlink:href="#Cochineal-Roman-53"/>
      </g>
     </g>
    </g>
    <g id="ytick_3">
     <g id="line2d_17">
      <g>
       <use style="fill:#222222;stroke:#222222;" x="72" xlink:href="#m89f8daafcf" y="196.709635"/>
      </g>
     </g>
     <g id="line2d_18">
      <g>
       <use style="fill:#222222;stroke:#222222;" x="518.4" xlink:href="#me12709719e" y="196.709635"/>
      </g>
     </g>
     <g id="text_9">
      <!-- 0.00 -->
      <g style="fill:#222222;" transform="translate(38.673438 202.811354)scale(0.18 -0.18)">
       <use xlink:href="#Cochineal-Roman-48"/>
       <use x="48.499985" xlink:href="#Cochineal-Roman-46"/>
       <use x="68.699982" xlink:href="#Cochineal-Roman-48"/>
       <use x="117.199966" xlink:href="#Cochineal-Roman-48"/>
      </g>
     </g>
    </g>
    <g id="ytick_4">
     <g id="line2d_19">
      <g>
       <use style="fill:#222222;stroke:#222222;" x="72" xlink:href="#m89f8daafcf" y="144.257124"/>
      </g>
     </g>
     <g id="line2d_20">
      <g>
       <use style="fill:#222222;stroke:#222222;" x="518.4" xlink:href="#me12709719e" y="144.257124"/>
      </g>
     </g>
     <g id="text_10">
      <!-- 0.05 -->
      <g style="fill:#222222;" transform="translate(38.673438 150.358843)scale(0.18 -0.18)">
       <use xlink:href="#Cochineal-Roman-48"/>
       <use x="48.499985" xlink:href="#Cochineal-Roman-46"/>
       <use x="68.699982" xlink:href="#Cochineal-Roman-48"/>
       <use x="117.199966" xlink:href="#Cochineal-Roman-53"/>
      </g>
     </g>
    </g>
    <g id="ytick_5">
     <g id="line2d_21">
      <g>
       <use style="fill:#222222;stroke:#222222;" x="72" xlink:href="#m89f8daafcf" y="91.804613"/>
      </g>
     </g>
     <g id="line2d_22">
      <g>
       <use style="fill:#222222;stroke:#222222;" x="518.4" xlink:href="#me12709719e" y="91.804613"/>
      </g>
     </g>
     <g id="text_11">
      <!-- 0.10 -->
      <g style="fill:#222222;" transform="translate(38.673438 97.906332)scale(0.18 -0.18)">
       <use xlink:href="#Cochineal-Roman-48"/>
       <use x="48.499985" xlink:href="#Cochineal-Roman-46"/>
       <use x="68.699982" xlink:href="#Cochineal-Roman-49"/>
       <use x="117.199966" xlink:href="#Cochineal-Roman-48"/>
      </g>
     </g>
    </g>
   </g>
   <g id="line2d_23">
    <path clip-path="url(#p1992547e83)" d="M 92.290909 196.709635 
L 160.874182 196.600055 
L 162.416291 196.352713 
L 163.390255 195.992 
L 164.201891 195.461089 
L 164.932364 194.699516 
L 165.581673 193.694449 
L 166.230982 192.263029 
L 166.880291 190.264037 
L 167.5296 187.528475 
L 168.178909 183.862997 
L 168.909382 178.367315 
L 169.639855 171.134103 
L 170.451491 160.755799 
L 171.344291 146.289837 
L 172.399418 125.35355 
L 175.321309 64.394129 
L 175.889455 57.814535 
L 176.295273 55.473603 
L 176.4576 55.178127 
L 176.619927 55.279721 
L 176.782255 55.797322 
L 177.025745 57.391473 
L 177.3504 61.121107 
L 177.756218 68.48504 
L 178.2432 81.391013 
L 178.892509 105.336079 
L 179.704145 144.577202 
L 182.382545 284.236873 
L 182.869527 297.724805 
L 183.275345 303.501386 
L 183.518836 304.369379 
L 183.681164 303.829271 
L 183.924655 301.327532 
L 184.249309 294.868911 
L 184.655127 282.014579 
L 185.223273 256.243772 
L 186.116073 203.792395 
L 187.333527 133.5086 
L 187.901673 111.65635 
L 188.307491 103.052242 
L 188.550982 101.067976 
L 188.632145 100.957114 
L 188.713309 101.12411 
L 188.875636 102.292218 
L 189.119127 106.109995 
L 189.443782 114.913642 
L 189.930764 135.235515 
L 190.661236 177.216138 
L 192.041018 258.919534 
L 192.528 276.864568 
L 192.852655 283.408038 
L 193.096145 285.156337 
L 193.177309 285.119199 
L 193.339636 284.110783 
L 193.583127 280.289413 
L 193.907782 271.075335 
L 194.394764 249.538739 
L 195.2064 200.440872 
L 196.261527 138.388644 
L 196.748509 120.56394 
L 197.073164 114.592311 
L 197.235491 113.560146 
L 197.316655 113.544545 
L 197.478982 114.516612 
L 197.722473 118.449233 
L 198.047127 128.076652 
L 198.534109 150.562457 
L 199.426909 205.976262 
L 200.238545 252.476444 
L 200.725527 269.872011 
L 201.050182 275.17489 
L 201.212509 275.757631 
L 201.293673 275.522317 
L 201.456 274.002196 
L 201.699491 269.156826 
L 202.105309 254.780218 
L 202.673455 224.356505 
L 204.215564 135.375988 
L 204.621382 124.000001 
L 204.864873 121.275871 
L 204.946036 121.088489 
L 205.0272 121.264677 
L 205.189527 122.703326 
L 205.433018 127.51451 
L 205.838836 142.020029 
L 206.406982 172.735695 
L 207.786764 252.937964 
L 208.192582 265.508255 
L 208.436073 268.923962 
L 208.5984 269.361099 
L 208.760727 268.310476 
L 209.004218 263.998753 
L 209.328873 253.487811 
L 209.815855 229.420774 
L 211.520291 135.365126 
L 211.844945 128.160245 
L 212.088436 126.606058 
L 212.1696 126.844344 
L 212.331927 128.451003 
L 212.575418 133.606328 
L 212.981236 148.805837 
L 213.630545 185.217428 
L 214.685673 245.859051 
L 215.091491 259.585967 
L 215.416145 264.284047 
L 215.497309 264.513889 
L 215.578473 264.360058 
L 215.7408 262.907081 
L 215.984291 257.942314 
L 216.390109 242.966701 
L 216.958255 211.834896 
L 218.094545 147.504109 
L 218.500364 134.768182 
L 218.743855 131.388437 
L 218.825018 131.024344 
L 218.906182 131.046853 
L 219.068509 132.248658 
L 219.312 136.872573 
L 219.636655 147.875751 
L 220.2048 177.201945 
L 221.503418 248.382727 
L 221.909236 258.747606 
L 222.152727 260.525305 
L 222.233891 260.342795 
L 222.396218 258.818809 
L 222.639709 253.723832 
L 223.045527 238.544887 
L 223.694836 202.586797 
L 224.6688 149.697027 
L 225.074618 137.700444 
L 225.318109 134.838302 
L 225.399273 134.656015 
L 225.480436 134.863349 
L 225.642764 136.438762 
L 225.886255 141.609803 
L 226.292073 156.876541 
L 226.941382 192.677755 
L 227.834182 240.891113 
L 228.24 253.49241 
L 228.483491 256.775514 
L 228.564655 257.101308 
L 228.645818 257.037471 
L 228.808145 255.74563 
L 229.051636 250.980614 
L 229.376291 239.834215 
L 229.944436 210.723965 
L 231.080727 150.468262 
L 231.486545 139.818955 
L 231.730036 137.840178 
L 231.8112 137.955784 
L 231.973527 139.348095 
L 232.217018 144.24895 
L 232.622836 159.071113 
L 233.272145 194.034113 
L 234.164945 240.281036 
L 234.570764 251.609199 
L 234.814255 254.065007 
L 234.895418 254.112975 
L 235.057745 253.04818 
L 235.301236 248.625158 
L 235.625891 237.928861 
L 236.194036 209.621951 
L 237.249164 154.503319 
L 237.654982 143.197061 
L 237.898473 140.727659 
L 237.979636 140.671694 
L 238.141964 141.715637 
L 238.385455 146.094711 
L 238.710109 156.703406 
L 239.278255 184.735742 
L 240.333382 238.714733 
L 240.7392 249.382812 
L 240.982691 251.454186 
L 241.063855 251.379674 
L 241.226182 250.083541 
L 241.469673 245.362679 
L 241.875491 230.959333 
L 242.5248 197.161333 
L 243.336436 156.854216 
L 243.742255 145.701227 
L 243.985745 143.264414 
L 244.066909 143.210367 
L 244.229236 144.244678 
L 244.472727 148.573452 
L 244.797382 159.036516 
L 245.365527 186.525435 
L 246.420655 238.235202 
L 246.826473 247.691807 
L 247.069964 249.029847 
L 247.232291 248.031901 
L 247.475782 243.776583 
L 247.800436 233.446666 
L 248.368582 206.297578 
L 249.342545 158.383535 
L 249.748364 147.727389 
L 249.991855 145.542733 
L 250.073018 145.562606 
L 250.235345 146.726329 
L 250.478836 151.193905 
L 250.884655 165.031767 
L 251.533964 197.512569 
L 252.3456 235.419737 
L 252.751418 245.190123 
L 252.994909 246.823308 
L 253.076073 246.623865 
L 253.2384 245.11542 
L 253.481891 240.186886 
L 253.887709 225.814039 
L 254.699345 184.886356 
L 255.348655 157.077602 
L 255.673309 149.592977 
L 255.9168 147.657848 
L 255.997964 147.748822 
L 256.160291 149.033361 
L 256.403782 153.619984 
L 256.8096 167.452021 
L 257.540073 203.472428 
L 258.270545 235.229648 
L 258.5952 242.740483 
L 258.838691 244.740171 
L 258.919855 244.678126 
L 259.082182 243.461309 
L 259.325673 238.998014 
L 259.731491 225.417996 
L 260.461964 189.947057 
L 261.192436 158.774512 
L 261.517091 151.49714 
L 261.760582 149.646258 
L 261.841745 149.751156 
L 262.004073 151.041525 
L 262.247564 155.579773 
L 262.653382 169.17027 
L 263.465018 208.238178 
L 264.114327 234.514971 
L 264.438982 241.322539 
L 264.682473 242.831821 
L 264.763636 242.619541 
L 264.925964 241.129204 
L 265.169455 236.340292 
L 265.575273 222.512327 
L 267.279709 153.58563 
L 267.5232 151.538195 
L 267.604364 151.561164 
L 267.766691 152.666766 
L 268.010182 156.884903 
L 268.416 169.867199 
L 269.146473 203.78968 
L 269.795782 230.733834 
L 270.2016 239.649349 
L 270.445091 241.016378 
L 270.607418 240.179214 
L 270.850909 236.371996 
L 271.175564 227.017677 
L 271.743709 202.573864 
L 272.636509 163.985845 
L 273.042327 154.840022 
L 273.285818 153.262507 
L 273.366982 153.427966 
L 273.529309 154.790448 
L 273.7728 159.307429 
L 274.178618 172.495329 
L 275.883055 237.672302 
L 276.126545 239.312382 
L 276.207709 239.176237 
L 276.370036 237.88375 
L 276.613527 233.496549 
L 277.019345 220.573939 
L 278.723782 156.494692 
L 278.967273 154.925989 
L 279.048436 155.077827 
L 279.210764 156.388717 
L 279.454255 160.769489 
L 279.860073 173.587157 
L 281.483345 235.201996 
L 281.726836 237.565535 
L 281.808 237.691632 
L 281.889164 237.483329 
L 282.051491 236.074133 
L 282.294982 231.588821 
L 282.7008 218.733729 
L 284.324073 158.612939 
L 284.567564 156.56164 
L 284.648727 156.533271 
L 284.811055 157.463436 
L 285.054545 161.244711 
L 285.3792 170.244906 
L 286.028509 196.833525 
L 286.840145 228.012098 
L 287.1648 234.508743 
L 287.408291 236.147593 
L 287.489455 236.044888 
L 287.651782 234.868689 
L 287.895273 230.773935 
L 288.301091 218.618224 
L 289.924364 160.17147 
L 290.167855 158.083998 
L 290.249018 158.026024 
L 290.411345 158.872089 
L 290.654836 162.469787 
L 290.979491 171.134703 
L 291.547636 193.363262 
L 292.359273 224.761313 
L 292.765091 233.188007 
L 293.008582 234.682162 
L 293.089745 234.547867 
L 293.252073 233.335148 
L 293.495564 229.255024 
L 293.901382 217.311874 
L 295.524655 161.224605 
L 295.768145 159.469414 
L 295.849309 159.506886 
L 296.011636 160.516048 
L 296.255127 164.278511 
L 296.660945 175.713703 
L 298.284218 231.295752 
L 298.527709 233.222507 
L 298.608873 233.251939 
L 298.7712 232.387818 
L 299.014691 228.862046 
L 299.420509 217.831715 
L 300.232145 186.006549 
L 300.800291 167.512128 
L 301.124945 161.949994 
L 301.368436 160.83409 
L 301.530764 161.607343 
L 301.774255 164.97235 
L 302.098909 173.117263 
L 302.748218 197.281468 
L 303.478691 223.207377 
L 303.884509 230.777135 
L 304.128 231.922523 
L 304.290327 231.190272 
L 304.533818 227.91559 
L 304.858473 219.93556 
L 305.426618 199.409747 
L 306.238255 170.685007 
L 306.644073 163.25797 
L 306.887564 162.151581 
L 307.049891 162.888512 
L 307.293382 166.137592 
L 307.618036 174.024571 
L 308.267345 197.424941 
L 308.997818 222.422288 
L 309.403636 229.614172 
L 309.565964 230.574606 
L 309.647127 230.61904 
L 309.809455 229.835772 
L 310.052945 226.5534 
L 310.3776 218.69443 
L 311.026909 195.588677 
L 311.757382 171.166409 
L 312.1632 164.294851 
L 312.325527 163.444045 
L 312.406691 163.448572 
L 312.569018 164.315955 
L 312.812509 167.684634 
L 313.218327 178.043686 
L 314.8416 227.906075 
L 315.085091 229.384374 
L 315.166255 229.313525 
L 315.328582 228.327997 
L 315.572073 224.825918 
L 315.977891 214.386678 
L 317.52 166.789239 
L 317.763491 164.756717 
L 317.844655 164.6305 
L 317.925818 164.783332 
L 318.088145 165.917356 
L 318.331636 169.593959 
L 318.737455 180.162626 
L 320.279564 226.434602 
L 320.523055 228.147699 
L 320.604218 228.173458 
L 320.766545 227.403701 
L 321.010036 224.267697 
L 321.415855 214.485008 
L 323.039127 167.163687 
L 323.282618 165.809426 
L 323.363782 165.896859 
L 323.526109 166.87741 
L 323.7696 170.277035 
L 324.175418 180.30958 
L 325.717527 225.228128 
L 325.961018 226.976311 
L 326.042182 227.030891 
L 326.204509 226.343006 
L 326.448 223.38489 
L 326.772655 216.261734 
L 327.421964 195.333092 
L 328.152436 173.468547 
L 328.477091 168.256633 
L 328.720582 166.942304 
L 328.801745 167.026599 
L 328.964073 167.976271 
L 329.207564 171.270181 
L 329.613382 180.987421 
L 331.155491 224.266727 
L 331.398982 225.882916 
L 331.480145 225.909201 
L 331.642473 225.189821 
L 331.885964 222.249043 
L 332.291782 213.074628 
L 333.915055 169.151535 
L 334.158545 168.031462 
L 334.239709 168.16487 
L 334.402036 169.186617 
L 334.645527 172.518679 
L 335.051345 182.105765 
L 336.512291 222.566658 
L 336.755782 224.643508 
L 336.836945 224.84406 
L 336.918109 224.794353 
L 337.080436 223.949146 
L 337.323927 220.893064 
L 337.729745 211.743665 
L 339.271855 170.655253 
L 339.515345 169.128896 
L 339.596509 169.108678 
L 339.758836 169.803972 
L 340.002327 172.620031 
L 340.408145 181.374682 
L 342.031418 222.859038 
L 342.274909 223.813717 
L 342.437236 223.24326 
L 342.680727 220.63278 
L 343.005382 214.252448 
L 343.654691 195.400531 
L 344.385164 175.775794 
L 344.709818 171.184247 
L 344.953309 170.107327 
L 345.034473 170.223321 
L 345.1968 171.163277 
L 345.440291 174.260995 
L 345.846109 183.204913 
L 347.307055 220.800514 
L 347.550545 222.654963 
L 347.631709 222.811434 
L 347.712873 222.733381 
L 347.8752 221.879573 
L 348.118691 218.93091 
L 348.524509 210.259541 
L 349.985455 173.183586 
L 350.228945 171.282987 
L 350.310109 171.102687 
L 350.391273 171.153027 
L 350.5536 171.940788 
L 350.797091 174.768358 
L 351.202909 183.20279 
L 352.745018 220.573956 
L 352.988509 221.830295 
L 353.069673 221.798204 
L 353.232 221.057808 
L 353.475491 218.325142 
L 353.881309 210.093745 
L 355.423418 173.326923 
L 355.666909 172.065065 
L 355.748073 172.087639 
L 355.9104 172.797969 
L 356.153891 175.460117 
L 356.559709 183.520401 
L 358.101818 219.645019 
L 358.345309 220.888899 
L 358.426473 220.867801 
L 358.5888 220.171578 
L 358.832291 217.557371 
L 359.238109 209.638455 
L 360.780218 174.18953 
L 361.023709 172.985184 
L 361.104873 173.012192 
L 361.2672 173.70898 
L 361.510691 176.296025 
L 361.916509 184.100992 
L 363.458618 218.843712 
L 363.702109 219.988766 
L 363.783273 219.949081 
L 363.9456 219.238294 
L 364.189091 216.659408 
L 364.594909 208.943397 
L 366.055855 175.695823 
L 366.299345 174.017657 
L 366.380509 173.867908 
L 366.461673 173.926451 
L 366.624 174.663483 
L 366.867491 177.251466 
L 367.273309 184.901018 
L 368.734255 217.423066 
L 368.977745 218.998164 
L 369.058909 219.119845 
L 369.140073 219.036821 
L 369.3024 218.26244 
L 369.545891 215.64982 
L 369.951709 208.04677 
L 371.412655 176.273177 
L 371.656145 174.815949 
L 371.737309 174.727429 
L 371.818473 174.840029 
L 371.9808 175.661762 
L 372.224291 178.31288 
L 372.630109 185.88682 
L 374.009891 216.067792 
L 374.253382 217.965954 
L 374.415709 218.264722 
L 374.578036 217.775245 
L 374.821527 215.613713 
L 375.146182 210.386005 
L 375.795491 195.114128 
L 376.525964 179.60053 
L 376.850618 176.190433 
L 377.012945 175.592419 
L 377.094109 175.583582 
L 377.256436 176.145579 
L 377.499927 178.382888 
L 377.905745 185.284763 
L 379.447855 216.411352 
L 379.691345 217.438615 
L 379.772509 217.401842 
L 379.934836 216.760182 
L 380.178327 214.437493 
L 380.584145 207.49989 
L 382.045091 177.88814 
L 382.288582 176.475055 
L 382.369745 176.373379 
L 382.450909 176.45902 
L 382.613236 177.18654 
L 382.856727 179.602672 
L 383.262545 186.584612 
L 384.723491 215.366895 
L 384.966982 216.598839 
L 385.048145 216.645346 
L 385.210473 216.188291 
L 385.453964 214.174649 
L 385.778618 209.309572 
L 386.427927 195.124674 
L 387.077236 181.961478 
L 387.483055 177.692296 
L 387.645382 177.174353 
L 387.726545 177.185548 
L 387.888873 177.746729 
L 388.132364 179.881447 
L 388.538182 186.366287 
L 389.999127 214.405363 
L 390.242618 215.772602 
L 390.323782 215.878932 
L 390.404945 215.807893 
L 390.567273 215.138779 
L 390.810764 212.878737 
L 391.216582 206.305965 
L 392.677527 179.121452 
L 392.921018 177.96312 
L 393.002182 177.921743 
L 393.164509 178.359595 
L 393.408 180.272699 
L 393.732655 184.883603 
L 394.381964 198.295263 
L 395.031273 210.686805 
L 395.437091 214.66139 
L 395.599418 215.122674 
L 395.680582 215.097552 
L 395.842909 214.53793 
L 396.0864 212.478397 
L 396.492218 206.295055 
L 397.953164 179.943978 
L 398.196655 178.725345 
L 398.277818 178.650387 
L 398.440145 179.002674 
L 398.683636 180.747727 
L 399.008291 185.082444 
L 399.6576 197.912738 
L 400.388073 211.014933 
L 400.712727 213.890135 
L 400.875055 214.388633 
L 400.956218 214.39175 
L 401.118545 213.906535 
L 401.362036 211.997934 
L 401.767855 206.139038 
L 403.2288 180.685461 
L 403.472291 179.453542 
L 403.634618 179.430739 
L 403.796945 180.049429 
L 404.040436 182.12041 
L 404.446255 188.118258 
L 405.826036 212.056075 
L 406.069527 213.508292 
L 406.231855 213.69899 
L 406.394182 213.257781 
L 406.637673 211.456565 
L 407.043491 205.863471 
L 408.5856 180.798614 
L 408.829091 180.049817 
L 408.910255 180.109902 
L 409.072582 180.692304 
L 409.316073 182.667535 
L 409.721891 188.416756 
L 411.101673 211.438515 
L 411.345164 212.838175 
L 411.507491 213.0231 
L 411.669818 212.599835 
L 411.913309 210.868321 
L 412.319127 205.489356 
L 413.861236 181.42073 
L 414.104727 180.714863 
L 414.185891 180.777625 
L 414.348218 181.347725 
L 414.591709 183.261591 
L 414.997527 188.808534 
L 416.377309 210.889907 
L 416.6208 212.207039 
L 416.783127 212.36452 
L 416.945455 211.937121 
L 417.188945 210.243208 
L 417.594764 205.033923 
L 419.055709 182.484394 
L 419.2992 181.426736 
L 419.461527 181.433803 
L 419.623855 182.011803 
L 419.867345 183.89336 
L 420.273164 189.277413 
L 421.652945 210.399747 
L 421.896436 211.609387 
L 422.058764 211.721338 
L 422.221091 211.271357 
L 422.464582 209.5882 
L 422.8704 204.511369 
L 424.331345 182.972042 
L 424.574836 182.025476 
L 424.656 181.983739 
L 424.818327 182.314212 
L 425.061818 183.809449 
L 425.386473 187.44206 
L 426.035782 198.027566 
L 426.685091 207.754936 
L 427.009745 210.44838 
L 427.253236 211.13218 
L 427.3344 211.090104 
L 427.496727 210.602404 
L 427.740218 208.908063 
L 428.146036 203.933514 
L 429.525818 183.948692 
L 429.769309 182.745482 
L 429.931636 182.595942 
L 430.093964 182.976393 
L 430.337455 184.50137 
L 430.743273 189.205849 
L 432.204218 209.550718 
L 432.447709 210.48735 
L 432.610036 210.466475 
L 432.772364 209.928946 
L 433.015855 208.206043 
L 433.421673 203.310376 
L 434.801455 184.312075 
L 435.044945 183.267089 
L 435.207273 183.200197 
L 435.3696 183.641352 
L 435.613091 185.211519 
L 436.018909 189.862323 
L 437.479855 209.170057 
L 437.723345 209.948401 
L 437.804509 209.959577 
L 437.966836 209.608074 
L 438.210327 208.182022 
L 438.616145 203.767209 
L 440.077091 184.653134 
L 440.320582 183.778008 
L 440.482909 183.801915 
L 440.645236 184.31187 
L 440.888727 185.938594 
L 441.294545 190.55034 
L 442.674327 208.368351 
L 442.917818 209.330306 
L 443.080145 209.378716 
L 443.242473 208.949477 
L 443.485964 207.452866 
L 443.891782 203.055043 
L 445.271564 185.441192 
L 445.515055 184.401791 
L 445.677382 184.287224 
L 445.839709 184.641568 
L 446.0832 186.015696 
L 446.489018 190.207941 
L 447.949964 208.075147 
L 448.193455 208.849477 
L 448.355782 208.793968 
L 448.518109 208.282373 
L 448.7616 206.709183 
L 449.167418 202.321904 
L 450.466036 186.194827 
L 450.790691 184.855391 
L 450.953018 184.851296 
L 451.115345 185.295262 
L 451.358836 186.757608 
L 451.764655 190.958271 
L 453.144436 207.372788 
L 453.387927 208.278243 
L 453.550255 208.336709 
L 453.712582 207.955371 
L 453.956073 206.597203 
L 454.361891 202.57554 
L 455.741673 186.385166 
L 455.985164 185.425454 
L 456.147491 185.317585 
L 456.309818 185.641089 
L 456.553309 186.901558 
L 456.959127 190.751881 
L 458.420073 207.140961 
L 458.663564 207.840898 
L 458.825891 207.781633 
L 458.988218 207.303238 
L 459.231709 205.846004 
L 459.637527 201.800841 
L 460.936145 187.034478 
L 461.2608 185.838359 
L 461.423127 185.852845 
L 461.585455 186.278725 
L 461.828945 187.6471 
L 462.234764 191.536085 
L 463.614545 206.531045 
L 463.858036 207.322826 
L 464.020364 207.348922 
L 464.182691 206.971474 
L 464.426182 205.686381 
L 464.832 201.946806 
L 466.211782 187.180695 
L 466.455273 186.351846 
L 466.6176 186.289136 
L 466.779927 186.622043 
L 467.023418 187.829237 
L 467.429236 191.426106 
L 468.809018 205.954841 
L 469.052509 206.815371 
L 469.214836 206.910952 
L 469.377164 206.618883 
L 469.620655 205.48441 
L 470.026473 202.023639 
L 471.487418 187.352919 
L 471.730909 186.742018 
L 471.893236 186.80737 
L 472.055564 187.248826 
L 472.380218 189.175282 
L 472.8672 194.028724 
L 473.841164 204.385222 
L 474.165818 206.109503 
L 474.409309 206.474396 
L 474.571636 206.253641 
L 474.815127 205.249923 
L 475.139782 202.811161 
L 475.789091 195.728133 
L 476.4384 189.290648 
L 476.763055 187.557003 
L 477.006545 187.160997 
L 477.168873 187.350911 
L 477.412364 188.29617 
L 477.737018 190.64221 
L 478.386327 197.541712 
L 479.035636 203.883387 
L 479.360291 205.621474 
L 479.603782 206.044275 
L 479.766109 205.882228 
L 480.0096 204.991101 
L 480.334255 202.732814 
L 480.983564 196.012093 
L 481.632873 189.770024 
L 481.957527 188.032019 
L 482.201018 187.586453 
L 482.363345 187.723436 
L 482.606836 188.564546 
L 482.931491 190.739874 
L 483.5808 197.286653 
L 484.311273 203.968807 
L 484.635927 205.398376 
L 484.798255 205.624249 
L 484.960582 205.509694 
L 485.204073 204.714693 
L 485.528727 202.617711 
L 486.096873 197.10239 
L 486.827345 190.206243 
L 487.233164 188.238637 
L 487.395491 188.000413 
L 487.557818 188.095019 
L 487.801309 188.847611 
L 488.125964 190.870678 
L 488.694109 196.241079 
L 489.505745 203.542241 
L 489.8304 204.968509 
L 490.073891 205.219102 
L 490.236218 204.980122 
L 490.479709 204.037589 
L 490.885527 201.149443 
L 492.346473 188.902388 
L 492.589964 188.400793 
L 492.752291 188.462319 
L 492.995782 189.140401 
L 493.320436 191.028184 
L 493.888582 196.122553 
L 494.700218 203.152024 
L 495.024873 204.561187 
L 495.268364 204.838708 
L 495.430691 204.635514 
L 495.674182 203.769951 
L 496.08 201.054723 
L 497.540945 189.298228 
L 497.784436 188.786298 
L 497.946764 188.822882 
L 498.109091 189.160816 
L 498.109091 189.160816 
" style="fill:none;stroke:#000000;stroke-linecap:square;stroke-width:2;"/>
   </g>
   <g id="patch_3">
    <path d="M 72 316.828944 
L 72 42.718509 
" style="fill:none;stroke:#333333;stroke-linecap:square;stroke-linejoin:miter;stroke-width:0.8;"/>
   </g>
   <g id="patch_4">
    <path d="M 518.4 316.828944 
L 518.4 42.718509 
" style="fill:none;stroke:#333333;stroke-linecap:square;stroke-linejoin:miter;stroke-width:0.8;"/>
   </g>
   <g id="patch_5">
    <path d="M 72 316.828944 
L 518.4 316.828944 
" style="fill:none;stroke:#333333;stroke-linecap:square;stroke-linejoin:miter;stroke-width:0.8;"/>
   </g>
   <g id="patch_6">
    <path d="M 72 42.718509 
L 518.4 42.718509 
" style="fill:none;stroke:#333333;stroke-linecap:square;stroke-linejoin:miter;stroke-width:0.8;"/>
   </g>
   <g id="legend_1">
    <g id="line2d_24">
     <path d="M 317.88 70.258509 
L 353.88 70.258509 
" style="fill:none;stroke:#000000;stroke-linecap:square;stroke-width:2;"/>
    </g>
    <g id="line2d_25"/>
    <g id="text_12">
     <!-- $e^{-x^2/16} J_{100}(100x)$ -->
     <g transform="translate(368.28 76.558509)scale(0.18 -0.18)">
      <defs>
       <path d="M 20.125 -1.125 
Q 15.328125 -1.125 11.734375 1.359375 
Q 8.15625 3.859375 6.265625 8.078125 
Q 4.390625 12.3125 4.390625 17 
Q 4.390625 24.125 7.984375 30.390625 
Q 11.578125 36.671875 17.71875 40.421875 
Q 23.875 44.1875 30.90625 44.1875 
Q 35.203125 44.1875 38.40625 41.96875 
Q 41.609375 39.75 41.609375 35.59375 
Q 41.609375 29.828125 37.015625 27.015625 
Q 32.421875 24.21875 26.65625 23.5625 
Q 20.90625 22.90625 13.921875 22.90625 
L 13.625 22.90625 
Q 12.015625 16.9375 12.015625 12.703125 
Q 12.015625 8.25 14.0625 4.875 
Q 16.109375 1.515625 20.3125 1.515625 
Q 26.265625 1.515625 31.75 4.25 
Q 37.25 6.984375 40.71875 11.8125 
Q 41.015625 12.109375 41.5 12.109375 
Q 42 12.109375 42.5 11.546875 
Q 43.015625 10.984375 43.015625 10.5 
Q 43.015625 10.109375 42.828125 9.90625 
Q 39.15625 4.78125 32.953125 1.828125 
Q 26.765625 -1.125 20.125 -1.125 
z
M 14.203125 25.484375 
Q 20.015625 25.484375 24.953125 26.015625 
Q 29.890625 26.5625 33.890625 28.734375 
Q 37.890625 30.90625 37.890625 35.5 
Q 37.890625 37.359375 36.859375 38.75 
Q 35.84375 40.140625 34.203125 40.875 
Q 32.5625 41.609375 30.8125 41.609375 
Q 26.5625 41.609375 23.171875 39.3125 
Q 19.78125 37.015625 17.578125 33.328125 
Q 15.375 29.640625 14.203125 25.484375 
z
" id="Cmmi10-101"/>
       <path d="M 10.203125 23 
Q 9.375 23 8.828125 23.625 
Q 8.296875 24.265625 8.296875 25 
Q 8.296875 25.734375 8.828125 26.359375 
Q 9.375 27 10.203125 27 
L 67.578125 27 
Q 68.359375 27 68.875 26.359375 
Q 69.390625 25.734375 69.390625 25 
Q 69.390625 24.265625 68.875 23.625 
Q 68.359375 23 67.578125 23 
z
" id="Cmsy10-161"/>
       <path d="M 7.8125 2.875 
Q 9.578125 1.515625 12.796875 1.515625 
Q 15.921875 1.515625 18.3125 4.515625 
Q 20.703125 7.515625 21.578125 11.078125 
L 26.125 28.8125 
Q 27.203125 33.640625 27.203125 35.40625 
Q 27.203125 37.890625 25.8125 39.75 
Q 24.421875 41.609375 21.921875 41.609375 
Q 18.75 41.609375 15.96875 39.625 
Q 13.1875 37.640625 11.28125 34.59375 
Q 9.375 31.546875 8.59375 28.421875 
Q 8.40625 27.78125 7.8125 27.78125 
L 6.59375 27.78125 
Q 5.8125 27.78125 5.8125 28.71875 
L 5.8125 29 
Q 6.78125 32.71875 9.125 36.25 
Q 11.46875 39.796875 14.859375 41.984375 
Q 18.265625 44.1875 22.125 44.1875 
Q 25.78125 44.1875 28.734375 42.234375 
Q 31.6875 40.28125 32.90625 36.921875 
Q 34.625 39.984375 37.28125 42.078125 
Q 39.9375 44.1875 43.109375 44.1875 
Q 45.265625 44.1875 47.5 43.421875 
Q 49.75 42.671875 51.171875 41.109375 
Q 52.59375 39.546875 52.59375 37.203125 
Q 52.59375 34.671875 50.953125 32.828125 
Q 49.3125 31 46.78125 31 
Q 45.171875 31 44.09375 32.03125 
Q 43.015625 33.0625 43.015625 34.625 
Q 43.015625 36.71875 44.453125 38.296875 
Q 45.90625 39.890625 47.90625 40.1875 
Q 46.09375 41.609375 42.921875 41.609375 
Q 39.703125 41.609375 37.328125 38.625 
Q 34.96875 35.640625 33.984375 31.984375 
L 29.59375 14.3125 
Q 28.515625 10.296875 28.515625 7.71875 
Q 28.515625 5.171875 29.953125 3.34375 
Q 31.390625 1.515625 33.796875 1.515625 
Q 38.484375 1.515625 42.15625 5.640625 
Q 45.84375 9.765625 47.015625 14.703125 
Q 47.21875 15.28125 47.796875 15.28125 
L 49.03125 15.28125 
Q 49.421875 15.28125 49.65625 15.015625 
Q 49.90625 14.75 49.90625 14.40625 
Q 49.90625 14.3125 49.8125 14.109375 
Q 48.390625 8.15625 43.84375 3.515625 
Q 39.3125 -1.125 33.59375 -1.125 
Q 29.9375 -1.125 26.984375 0.84375 
Q 24.03125 2.828125 22.796875 6.203125 
Q 21.234375 3.265625 18.46875 1.0625 
Q 15.71875 -1.125 12.59375 -1.125 
Q 10.453125 -1.125 8.171875 -0.359375 
Q 5.90625 0.390625 4.484375 1.953125 
Q 3.078125 3.515625 3.078125 5.90625 
Q 3.078125 8.25 4.703125 10.171875 
Q 6.34375 12.109375 8.796875 12.109375 
Q 10.453125 12.109375 11.578125 11.109375 
Q 12.703125 10.109375 12.703125 8.5 
Q 12.703125 6.390625 11.296875 4.828125 
Q 9.90625 3.265625 7.8125 2.875 
z
" id="Cmmi10-120"/>
       <path d="M 4.984375 0 
L 4.984375 2.6875 
Q 4.984375 2.9375 5.171875 3.21875 
L 20.703125 20.40625 
Q 24.21875 24.21875 26.40625 26.796875 
Q 28.609375 29.390625 30.75 32.765625 
Q 32.90625 36.140625 34.15625 39.625 
Q 35.40625 43.109375 35.40625 47.015625 
Q 35.40625 51.125 33.890625 54.859375 
Q 32.375 58.59375 29.375 60.84375 
Q 26.375 63.09375 22.125 63.09375 
Q 17.78125 63.09375 14.3125 60.46875 
Q 10.84375 57.859375 9.421875 53.71875 
Q 9.8125 53.8125 10.5 53.8125 
Q 12.75 53.8125 14.328125 52.296875 
Q 15.921875 50.78125 15.921875 48.390625 
Q 15.921875 46.09375 14.328125 44.5 
Q 12.75 42.921875 10.5 42.921875 
Q 8.15625 42.921875 6.5625 44.546875 
Q 4.984375 46.1875 4.984375 48.390625 
Q 4.984375 52.15625 6.390625 55.4375 
Q 7.8125 58.734375 10.46875 61.296875 
Q 13.140625 63.875 16.484375 65.234375 
Q 19.828125 66.609375 23.578125 66.609375 
Q 29.296875 66.609375 34.21875 64.1875 
Q 39.15625 61.765625 42.03125 57.34375 
Q 44.921875 52.9375 44.921875 47.015625 
Q 44.921875 42.671875 43.015625 38.765625 
Q 41.109375 34.859375 38.125 31.65625 
Q 35.15625 28.46875 30.515625 24.40625 
Q 25.875 20.359375 24.421875 19 
L 13.09375 8.109375 
L 22.703125 8.109375 
Q 29.78125 8.109375 34.546875 8.21875 
Q 39.3125 8.34375 39.59375 8.59375 
Q 40.765625 9.859375 42 17.828125 
L 44.921875 17.828125 
L 42.09375 0 
z
" id="Cmr10-50"/>
       <path d="M 5.609375 -23 
Q 5.609375 -22.703125 5.71875 -22.609375 
L 40.484375 73.78125 
Q 40.671875 74.359375 41.15625 74.671875 
Q 41.65625 75 42.28125 75 
Q 43.171875 75 43.71875 74.453125 
Q 44.28125 73.921875 44.28125 73 
L 44.28125 72.609375 
L 9.515625 -23.78125 
Q 8.9375 -25 7.625 -25 
Q 6.78125 -25 6.1875 -24.40625 
Q 5.609375 -23.828125 5.609375 -23 
z
" id="Cmmi10-61"/>
       <path d="M 9.28125 0 
L 9.28125 3.515625 
Q 21.78125 3.515625 21.78125 6.6875 
L 21.78125 59.1875 
Q 16.609375 56.6875 8.6875 56.6875 
L 8.6875 60.203125 
Q 20.953125 60.203125 27.203125 66.609375 
L 28.609375 66.609375 
Q 28.953125 66.609375 29.265625 66.328125 
Q 29.59375 66.0625 29.59375 65.71875 
L 29.59375 6.6875 
Q 29.59375 3.515625 42.09375 3.515625 
L 42.09375 0 
z
" id="Cmr10-49"/>
       <path d="M 25 -2.203125 
Q 18.796875 -2.203125 14.640625 1.09375 
Q 10.5 4.390625 8.21875 9.640625 
Q 5.953125 14.890625 5.078125 20.65625 
Q 4.203125 26.421875 4.203125 32.328125 
Q 4.203125 40.234375 7.28125 48.1875 
Q 10.359375 56.15625 16.328125 61.375 
Q 22.3125 66.609375 30.515625 66.609375 
Q 33.9375 66.609375 36.890625 65.3125 
Q 39.84375 64.015625 41.53125 61.5 
Q 43.21875 58.984375 43.21875 55.421875 
Q 43.21875 53.375 41.828125 51.984375 
Q 40.4375 50.59375 38.375 50.59375 
Q 36.421875 50.59375 35 52 
Q 33.59375 53.421875 33.59375 55.421875 
Q 33.59375 57.375 35 58.78125 
Q 36.421875 60.203125 38.375 60.203125 
L 38.921875 60.203125 
Q 37.640625 62.015625 35.328125 62.859375 
Q 33.015625 63.71875 30.515625 63.71875 
Q 27.484375 63.71875 24.921875 62.390625 
Q 22.359375 61.078125 20.3125 58.828125 
Q 18.265625 56.59375 16.890625 53.875 
Q 15.53125 51.171875 14.765625 47.703125 
Q 14.015625 44.234375 13.8125 41.203125 
Q 13.625 38.1875 13.625 33.59375 
Q 15.375 37.703125 18.59375 40.3125 
Q 21.828125 42.921875 25.875 42.921875 
Q 30.328125 42.921875 33.984375 41.109375 
Q 37.640625 39.3125 40.28125 36.109375 
Q 42.921875 32.90625 44.3125 28.796875 
Q 45.703125 24.703125 45.703125 20.515625 
Q 45.703125 14.65625 43.09375 9.34375 
Q 40.484375 4.046875 35.734375 0.921875 
Q 31 -2.203125 25 -2.203125 
z
M 25 0.984375 
Q 28.859375 0.984375 31.203125 2.734375 
Q 33.546875 4.5 34.640625 7.390625 
Q 35.75 10.296875 36.015625 13.25 
Q 36.28125 16.21875 36.28125 20.515625 
Q 36.28125 26.171875 35.734375 30.171875 
Q 35.203125 34.1875 32.8125 37.234375 
Q 30.421875 40.28125 25.484375 40.28125 
Q 21.4375 40.28125 18.828125 37.546875 
Q 16.21875 34.8125 15.015625 30.640625 
Q 13.8125 26.46875 13.8125 22.609375 
Q 13.8125 21.296875 13.921875 20.609375 
Q 13.921875 20.453125 13.890625 20.359375 
Q 13.875 20.265625 13.8125 20.125 
Q 13.8125 15.828125 14.6875 11.421875 
Q 15.578125 7.03125 18.0625 4 
Q 20.5625 0.984375 25 0.984375 
z
" id="Cmr10-54"/>
       <path d="M 10.890625 6 
Q 11.859375 3.21875 14.5 1.796875 
Q 17.140625 0.390625 20.21875 0.390625 
Q 23.34375 0.390625 26.25 2.5625 
Q 29.15625 4.734375 31.171875 8 
Q 33.203125 11.28125 33.984375 14.5 
L 45.796875 61.8125 
Q 45.90625 62.203125 45.921875 62.390625 
Q 45.953125 62.59375 46 62.796875 
Q 46 63.875 45.21875 64.109375 
Q 42.578125 64.796875 34.515625 64.796875 
Q 33.5 64.796875 33.5 66.109375 
Q 33.6875 66.890625 33.8125 67.328125 
Q 33.9375 67.78125 34.25 68.046875 
Q 34.578125 68.3125 35.203125 68.3125 
L 62.3125 68.3125 
Q 63.28125 68.3125 63.28125 67 
Q 62.890625 64.796875 62.015625 64.796875 
Q 58.5 64.796875 56.6875 64.25 
Q 54.890625 63.71875 54.203125 61.375 
L 42.390625 14.109375 
Q 41.265625 9.46875 37.8125 5.734375 
Q 34.375 2 29.640625 -0.09375 
Q 24.90625 -2.203125 20.125 -2.203125 
Q 14.84375 -2.203125 10.859375 0.71875 
Q 6.890625 3.65625 6.890625 8.6875 
Q 6.890625 12.015625 8.6875 14.40625 
Q 10.5 16.796875 13.8125 16.796875 
Q 15.71875 16.796875 17.015625 15.625 
Q 18.3125 14.453125 18.3125 12.59375 
Q 18.3125 9.90625 16.3125 7.90625 
Q 14.3125 5.90625 11.625 5.90625 
Q 11.078125 5.90625 10.890625 6 
z
" id="Cmmi10-74"/>
       <path d="M 25 -2.203125 
Q 12.75 -2.203125 8.328125 7.875 
Q 3.90625 17.96875 3.90625 31.890625 
Q 3.90625 40.578125 5.484375 48.234375 
Q 7.078125 55.90625 11.78125 61.25 
Q 16.5 66.609375 25 66.609375 
Q 31.59375 66.609375 35.78125 63.375 
Q 39.984375 60.15625 42.1875 55.046875 
Q 44.390625 49.953125 45.1875 44.109375 
Q 46 38.28125 46 31.890625 
Q 46 23.296875 44.40625 15.796875 
Q 42.828125 8.296875 38.1875 3.046875 
Q 33.546875 -2.203125 25 -2.203125 
z
M 25 0.390625 
Q 30.5625 0.390625 33.296875 6.09375 
Q 36.03125 11.8125 36.671875 18.75 
Q 37.3125 25.6875 37.3125 33.5 
Q 37.3125 41.015625 36.671875 47.359375 
Q 36.03125 53.71875 33.3125 58.859375 
Q 30.609375 64.015625 25 64.015625 
Q 19.34375 64.015625 16.609375 58.828125 
Q 13.875 53.65625 13.234375 47.328125 
Q 12.59375 41.015625 12.59375 33.5 
Q 12.59375 27.9375 12.859375 23 
Q 13.140625 18.0625 14.3125 12.8125 
Q 15.484375 7.5625 18.09375 3.96875 
Q 20.703125 0.390625 25 0.390625 
z
" id="Cmr10-48"/>
       <path d="M 31 -24.8125 
Q 25.4375 -20.40625 21.40625 -14.71875 
Q 17.390625 -9.03125 14.8125 -2.578125 
Q 12.25 3.859375 10.984375 10.890625 
Q 9.71875 17.921875 9.71875 25 
Q 9.71875 32.171875 10.984375 39.203125 
Q 12.25 46.234375 14.859375 52.734375 
Q 17.484375 59.234375 21.53125 64.890625 
Q 25.59375 70.5625 31 74.8125 
Q 31 75 31.5 75 
L 32.421875 75 
Q 32.71875 75 32.953125 74.734375 
Q 33.203125 74.46875 33.203125 74.125 
Q 33.203125 73.6875 33.015625 73.484375 
Q 28.125 68.703125 24.875 63.234375 
Q 21.625 57.765625 19.640625 51.578125 
Q 17.671875 45.40625 16.796875 38.78125 
Q 15.921875 32.171875 15.921875 25 
Q 15.921875 -6.78125 32.90625 -23.296875 
Q 33.203125 -23.578125 33.203125 -24.125 
Q 33.203125 -24.359375 32.9375 -24.671875 
Q 32.671875 -25 32.421875 -25 
L 31.5 -25 
Q 31 -25 31 -24.8125 
z
" id="Cmr10-40"/>
       <path d="M 6.5 -25 
Q 5.609375 -25 5.609375 -24.125 
Q 5.609375 -23.6875 5.8125 -23.484375 
Q 22.90625 -6.78125 22.90625 25 
Q 22.90625 56.78125 6 73.296875 
Q 5.609375 73.53125 5.609375 74.125 
Q 5.609375 74.46875 5.875 74.734375 
Q 6.15625 75 6.5 75 
L 7.421875 75 
Q 7.71875 75 7.90625 74.8125 
Q 15.09375 69.140625 19.875 61.03125 
Q 24.65625 52.9375 26.875 43.75 
Q 29.109375 34.578125 29.109375 25 
Q 29.109375 17.921875 27.90625 11.0625 
Q 26.703125 4.203125 24.09375 -2.453125 
Q 21.484375 -9.125 17.484375 -14.765625 
Q 13.484375 -20.40625 7.90625 -24.8125 
Q 7.71875 -25 7.421875 -25 
z
" id="Cmr10-41"/>
      </defs>
      <use transform="translate(0 0.3125)" xlink:href="#Cmmi10-101"/>
      <use transform="translate(52.787656 38.576563)scale(0.7)" xlink:href="#Cmsy10-161"/>
      <use transform="translate(107.167539 38.576563)scale(0.7)" xlink:href="#Cmmi10-120"/>
      <use transform="translate(151.535891 65.361406)scale(0.49)" xlink:href="#Cmr10-50"/>
      <use transform="translate(180.500031 38.576563)scale(0.7)" xlink:href="#Cmmi10-61"/>
      <use transform="translate(215.500031 38.576563)scale(0.7)" xlink:href="#Cmr10-49"/>
      <use transform="translate(250.500031 38.576563)scale(0.7)" xlink:href="#Cmr10-54"/>
      <use transform="translate(291.877375 0.3125)" xlink:href="#Cmmi10-74"/>
      <use transform="translate(347.297297 -16.69375)scale(0.7)" xlink:href="#Cmr10-49"/>
      <use transform="translate(382.297297 -16.69375)scale(0.7)" xlink:href="#Cmr10-48"/>
      <use transform="translate(417.297297 -16.69375)scale(0.7)" xlink:href="#Cmr10-48"/>
      <use transform="translate(458.674641 0.3125)" xlink:href="#Cmr10-40"/>
      <use transform="translate(497.493 0.3125)" xlink:href="#Cmr10-49"/>
      <use transform="translate(547.493 0.3125)" xlink:href="#Cmr10-48"/>
      <use transform="translate(597.493 0.3125)" xlink:href="#Cmr10-48"/>
      <use transform="translate(647.493 0.3125)" xlink:href="#Cmmi10-120"/>
      <use transform="translate(704.573078 0.3125)" xlink:href="#Cmr10-41"/>
     </g>
    </g>
   </g>
  </g>
 </g>
 <defs>
  <clipPath id="p1992547e83">
   <rect height="274.110435" width="446.4" x="72" y="42.718509"/>
  </clipPath>
 </defs>
</svg>
